<svg width="80" height="130" xmlns="http://www.w3.org/2000/svg">
 <g>
  <title>background</title>
  <rect x="-1" y="-1" width="82" height="132" id="canvas_background" fill="none"/>
 </g>

 <g>
  <title>Layer 1</title>
  <path fill="none" stroke="#999999" d="m0,40l400,0" id="svg_1"/>
  <path fill="none" stroke="#999999" d="m0,50l400,0" id="svg_2"/>
  <path fill="none" stroke="#999999" d="m0,60l400,0" id="svg_3"/>
  <path fill="none" stroke="#999999" d="m0,70l400,0" id="svg_4"/>
  <path fill="none" stroke="#999999" d="m0,80l400,0" id="svg_5"/>
  <rect stroke-width="0.3" fill="black" stroke="black" x="0" y="39.5" width="1" height="41" id="svg_6"/>
  <rect stroke-width="0.3" fill="black" stroke="black" x="400" y="39.5" width="1" height="41" id="svg_7"/>
  <path stroke-width="0.3" fill="black" d="m5,70m14.0544,-43.1712c0.0576,-0.0288 0.1152,-0.0288 0.2016,-0.0288c0.3456,0 0.7488,0.288 1.3248,1.008c2.3328,2.6784 3.9744,7.344 3.9744,11.1456c0,0.288 -0.0576,0.5184 -0.0576,0.8064c-0.2592,4.5216 -2.1024,8.2368 -5.76,11.7504l-0.9792,0.9504l-0.3456,0.3744l0,0.1152l0.2016,0.864l0.3168,1.5552l0.3168,1.44c0.432,1.9584 0.6048,2.9664 0.6048,2.9664c0,0 0,0 0,0c0,0 0.1152,0 0.2592,-0.0288c0.144,0 0.6048,-0.0576 1.0944,-0.0576c0.3456,0 0.6912,0.0576 0.864,0.0576c4.0608,0.5184 7.2,3.4272 8.0928,7.5168c0.1728,0.6624 0.2304,1.3824 0.2304,2.1024c0,3.888 -2.3328,7.6032 -6.2208,9.36c-0.2304,0.144 -0.3168,0.1728 -0.3168,0.1728l0,0.0288c0,0 0.1728,0.6624 0.3168,1.4112l0.432,2.1888l0.4032,1.7568c0.2304,1.1232 0.3456,1.9296 0.3456,2.6496c0,0.6336 -0.0864,1.2096 -0.2304,1.872c-0.9792,4.0032 -4.464,6.3936 -8.0928,6.3936c-1.7856,0 -3.6288,-0.576 -5.2416,-1.872c-1.44,-1.2096 -2.0736,-2.304 -2.0736,-3.744c0,-2.5344 2.0448,-4.32 4.176,-4.32c0.7488,0 1.4976,0.2304 2.2176,0.6624c1.2096,0.8352 1.7568,2.1024 1.7568,3.3408c0,1.9008 -1.3248,3.7728 -3.6,3.9168l-0.2304,0l0.1728,0.1152c0.9504,0.4032 1.9008,0.6048 2.8224,0.6048c2.3328,0 4.5216,-1.1808 5.8464,-3.2256c0.7488,-1.152 1.152,-2.5056 1.152,-3.8592c0,-0.5184 -0.0864,-1.0368 -0.2016,-1.6128c0,-0.0576 -0.0864,-0.5184 -0.2016,-0.9504c-0.6336,-3.1104 -1.008,-4.9248 -1.008,-4.9248c0,0 0,0 0,0c-0.0576,0 -0.1728,0 -0.2592,0.0576c-0.288,0.0576 -0.8928,0.2016 -1.152,0.2304c-0.6336,0.0864 -1.2384,0.1152 -1.8144,0.1152c-5.6448,0 -10.8864,-3.8016 -12.7008,-9.4176c-0.4608,-1.4976 -0.72,-2.9952 -0.72,-4.4928c0,-2.9952 0.9504,-5.9328 2.7936,-8.5536c2.016,-2.8512 4.032,-5.2992 6.5088,-7.8336l0.864,-0.8928l-0.2016,-1.0656l-0.3744,-1.7568l-0.4896,-2.2464c-0.144,-0.8352 -0.3168,-1.6416 -0.3456,-1.8144c-0.144,-0.9504 -0.2304,-1.872 -0.2304,-2.8224c0,-3.6288 1.1808,-7.1136 3.3984,-9.9072c0.6624,-0.864 1.8432,-2.016 2.16,-2.1024m1.7568,5.7024c-0.0576,0 -0.144,0 -0.2304,0c-1.1808,0 -2.7072,1.0944 -3.744,2.7072c-1.0656,1.584 -1.6128,3.6864 -1.6128,5.8464c0,0.576 0.0288,1.1808 0.1152,1.7856c0.0864,0.432 0.1152,0.72 0.3456,1.7568l0.4032,1.8144c0.1152,0.5472 0.2016,0.9792 0.2016,1.0368l0,0c0.0288,0 0.9216,-0.9792 1.2096,-1.3248c2.88,-3.2544 4.608,-6.6816 4.9824,-9.7056c0.0288,-0.288 0.0288,-0.5184 0.0288,-0.8064c0,-0.8928 -0.1152,-1.7568 -0.3168,-2.2176c-0.2304,-0.4608 -0.7488,-0.8352 -1.3824,-0.8928m-4.3488,22.2624c-0.0576,-0.4032 -0.144,-0.72 -0.144,-0.7776c0,0 0,0 -0.0288,0c-0.0576,0 -1.296,1.44 -2.16,2.448c-1.4688,1.7856 -3.024,3.9168 -3.6576,4.9536c-1.2096,2.0448 -1.8144,4.32 -1.8144,6.5664c0,1.4688 0.288,2.88 0.8064,4.2336c1.5552,4.0032 5.1264,6.5088 9.0144,6.5088c0.4608,0 0.9792,-0.0288 1.4688,-0.1152c0.6336,-0.1152 1.4112,-0.3456 1.4112,-0.432l0,0c0,0 -0.0576,-0.288 -0.144,-0.6048l-0.8352,-4.1184l-0.6624,-3.0816l-0.432,-2.1312l-0.4608,-2.0736c-0.2304,-1.2384 -0.3168,-1.5552 -0.3168,-1.5552c0,0 0,-0.0288 -0.0288,-0.0288c-0.1728,0 -1.0944,0.4608 -1.4976,0.7488c-1.4976,1.0368 -2.2752,2.6784 -2.2752,4.2912c0,1.5264 0.7488,3.0528 2.1888,3.9456c0.3168,0.2016 0.432,0.3744 0.432,0.576c0,0.0288 0,0.1152 0,0.144c-0.0576,0.3456 -0.2592,0.4896 -0.5472,0.4896c-0.1152,0 -0.2592,-0.0288 -0.432,-0.1152c-2.6496,-1.152 -4.4352,-3.888 -4.4352,-6.8832l0,0c0,-3.456 2.16,-6.4512 5.472,-7.632l0.1728,-0.0576l-0.288,-1.44l-0.8064,-3.8592m4.32,9.6192c-0.2304,-0.0288 -0.4608,-0.0288 -0.6336,-0.0288c-0.0576,0 -0.144,0 -0.2016,0l-0.144,0l0.1152,0.5184l0.6048,2.8224l0.3744,1.8432l0.4032,1.8144l0.8064,4.0032l0.3168,1.5264c0.1152,0.4032 0.1728,0.7488 0.2016,0.7488c0,0 0,0 0,0c0.0288,0 0.5184,-0.288 0.8352,-0.5184c1.4688,-1.0368 2.5632,-2.6496 2.9664,-4.32c0.144,-0.5472 0.2016,-1.1232 0.2016,-1.6704c0,-3.3408 -2.4768,-6.3648 -5.8464,-6.7392" id="svg_8"/>
  <text fill="#007fff" stroke="#000" stroke-width="0" x="67.666644" y="78.999981" id="svg_15" font-size="10" font-family="Helvetica, Arial, sans-serif" text-anchor="start" xml:space="preserve">F</text>
  <text fill="#007fff" stroke="#000" stroke-width="0" x="67.39581" y="68.66666" id="svg_16" font-size="10" font-family="Helvetica, Arial, sans-serif" text-anchor="start" xml:space="preserve">A</text>
  <text fill="#007fff" stroke="#000" stroke-width="0" x="67.104144" y="58.666671" id="svg_17" font-size="10" font-family="Helvetica, Arial, sans-serif" text-anchor="start" xml:space="preserve">C</text>
  <text fill="#007fff" stroke="#000" stroke-width="0" x="67.385394" y="48.666683" id="svg_18" font-size="10" font-family="Helvetica, Arial, sans-serif" text-anchor="start" xml:space="preserve">E</text>
  <text fill="#007fff" stroke="#000" stroke-width="0" x="44.320319" y="83.33331" id="svg_19" font-size="10" font-family="Helvetica, Arial, sans-serif" text-anchor="start" xml:space="preserve">E</text>
  <text fill="#007fff" stroke-width="0" x="43.768236" y="73.333321" id="svg_20" font-size="10" font-family="Helvetica, Arial, sans-serif" text-anchor="start" xml:space="preserve" stroke="#000">G</text>
  <text fill="#007fff" stroke="#000" stroke-width="0" x="44.309903" y="63.666666" id="svg_21" font-size="10" font-family="Helvetica, Arial, sans-serif" text-anchor="start" xml:space="preserve">B</text>
  <text fill="#007fff" stroke="#000" stroke-width="0" x="44.028653" y="53.666677" id="svg_22" font-size="10" font-family="Helvetica, Arial, sans-serif" text-anchor="start" xml:space="preserve">D</text>
  <text fill="#007fff" stroke="#000" stroke-width="0" x="44.601572" y="44.000022" id="svg_23" font-size="10" font-family="Helvetica, Arial, sans-serif" text-anchor="start" xml:space="preserve">F</text>
  <rect stroke-width="0.3" fill="black" stroke="black" x="38.4224" y="90" width="18.01824" height="1" id="svg_c4"/>
  <rect stroke-width="0.3" fill="black" stroke="black" x="38.4224" y="30" width="18.01824" height="1" id="svg_a5"/>
  <rect stroke-width="0.3" fill="black" stroke="black" x="38.4224" y="20" width="18.01824" height="1" id="svg_c6"/>
  <rect stroke-width="0.3" fill="black" stroke="black" x="38.4224" y="100" width="18.01824" height="1" id="svg_a3"/>
  <text fill="#007fff" stroke="#000" stroke-width="0" x="44.039069" y="94.333309" id="svg_9" font-size="10" font-family="Helvetica, Arial, sans-serif" text-anchor="start" xml:space="preserve">C</text>
  <text fill="#007fff" stroke="#000" stroke-width="0" x="44.320319" y="103.333309" id="svg_10" font-size="10" font-family="Helvetica, Arial, sans-serif" text-anchor="start" xml:space="preserve">A</text>
  <text fill="#007fff" stroke="#000" stroke-width="0" x="44.320322" y="33.333356" id="svg_11" font-size="10" font-family="Helvetica, Arial, sans-serif" text-anchor="start" xml:space="preserve">A</text>
  <text fill="#007fff" stroke="#000" stroke-width="0" x="44.028655" y="24.333357" id="svg_12" font-size="10" font-family="Helvetica, Arial, sans-serif" text-anchor="start" xml:space="preserve">C</text>
  <text fill="#007fff" stroke="#000" stroke-width="0" x="66.830707" y="38.33335" id="svg_13" font-size="10" font-family="Helvetica, Arial, sans-serif" text-anchor="start" xml:space="preserve">G</text>
  <text fill="#007fff" stroke="#000" stroke-width="0" x="67.395811" y="28.666684" id="svg_14" font-size="10" font-family="Helvetica, Arial, sans-serif" text-anchor="start" xml:space="preserve">B</text>
  <text fill="#007fff" stroke="#000" stroke-width="0" x="67.114561" y="88.99998" id="svg_24" font-size="10" font-family="Helvetica, Arial, sans-serif" text-anchor="start" xml:space="preserve">D</text>
  <text fill="#007fff" stroke="#000" stroke-width="0" x="67.395811" y="98.999979" id="svg_25" font-size="10" font-family="Helvetica, Arial, sans-serif" text-anchor="start" xml:space="preserve">B</text>
 </g>
</svg>