<svg width="80" height="130" xmlns="http://www.w3.org/2000/svg">

 <g>
  <title>background</title>
  <rect fill="none" id="canvas_background" height="132" width="82" y="-1" x="-1"/>
 </g>
 <g>
  <title>Layer 1</title>
  <path id="svg_1" d="m0,40l400,0" stroke="#999999" fill="none"/>
  <path id="svg_2" d="m0,50l400,0" stroke="#999999" fill="none"/>
  <path id="svg_3" d="m0,60l400,0" stroke="#999999" fill="none"/>
  <path id="svg_4" d="m0,70l400,0" stroke="#999999" fill="none"/>
  <path id="svg_5" d="m0,80l400,0" stroke="#999999" fill="none"/>
  <rect id="svg_6" height="41" width="1" y="39.5" x="0" stroke="black" fill="black" stroke-width="0.3"/>
  <rect id="svg_7" height="41" width="1" y="39.5" x="400" stroke="black" fill="black" stroke-width="0.3"/>
  <path id="svg_8" d="m5,70m14.0544,-43.1712c0.0576,-0.0288 0.1152,-0.0288 0.2016,-0.0288c0.3456,0 0.7488,0.288 1.3248,1.008c2.3328,2.6784 3.9744,7.344 3.9744,11.1456c0,0.288 -0.0576,0.5184 -0.0576,0.8064c-0.2592,4.5216 -2.1024,8.2368 -5.76,11.7504l-0.9792,0.9504l-0.3456,0.3744l0,0.1152l0.2016,0.864l0.3168,1.5552l0.3168,1.44c0.432,1.9584 0.6048,2.9664 0.6048,2.9664c0,0 0,0 0,0c0,0 0.1152,0 0.2592,-0.0288c0.144,0 0.6048,-0.0576 1.0944,-0.0576c0.3456,0 0.6912,0.0576 0.864,0.0576c4.0608,0.5184 7.2,3.4272 8.0928,7.5168c0.1728,0.6624 0.2304,1.3824 0.2304,2.1024c0,3.888 -2.3328,7.6032 -6.2208,9.36c-0.2304,0.144 -0.3168,0.1728 -0.3168,0.1728l0,0.0288c0,0 0.1728,0.6624 0.3168,1.4112l0.432,2.1888l0.4032,1.7568c0.2304,1.1232 0.3456,1.9296 0.3456,2.6496c0,0.6336 -0.0864,1.2096 -0.2304,1.872c-0.9792,4.0032 -4.464,6.3936 -8.0928,6.3936c-1.7856,0 -3.6288,-0.576 -5.2416,-1.872c-1.44,-1.2096 -2.0736,-2.304 -2.0736,-3.744c0,-2.5344 2.0448,-4.32 4.176,-4.32c0.7488,0 1.4976,0.2304 2.2176,0.6624c1.2096,0.8352 1.7568,2.1024 1.7568,3.3408c0,1.9008 -1.3248,3.7728 -3.6,3.9168l-0.2304,0l0.1728,0.1152c0.9504,0.4032 1.9008,0.6048 2.8224,0.6048c2.3328,0 4.5216,-1.1808 5.8464,-3.2256c0.7488,-1.152 1.152,-2.5056 1.152,-3.8592c0,-0.5184 -0.0864,-1.0368 -0.2016,-1.6128c0,-0.0576 -0.0864,-0.5184 -0.2016,-0.9504c-0.6336,-3.1104 -1.008,-4.9248 -1.008,-4.9248c0,0 0,0 0,0c-0.0576,0 -0.1728,0 -0.2592,0.0576c-0.288,0.0576 -0.8928,0.2016 -1.152,0.2304c-0.6336,0.0864 -1.2384,0.1152 -1.8144,0.1152c-5.6448,0 -10.8864,-3.8016 -12.7008,-9.4176c-0.4608,-1.4976 -0.72,-2.9952 -0.72,-4.4928c0,-2.9952 0.9504,-5.9328 2.7936,-8.5536c2.016,-2.8512 4.032,-5.2992 6.5088,-7.8336l0.864,-0.8928l-0.2016,-1.0656l-0.3744,-1.7568l-0.4896,-2.2464c-0.144,-0.8352 -0.3168,-1.6416 -0.3456,-1.8144c-0.144,-0.9504 -0.2304,-1.872 -0.2304,-2.8224c0,-3.6288 1.1808,-7.1136 3.3984,-9.9072c0.6624,-0.864 1.8432,-2.016 2.16,-2.1024m1.7568,5.7024c-0.0576,0 -0.144,0 -0.2304,0c-1.1808,0 -2.7072,1.0944 -3.744,2.7072c-1.0656,1.584 -1.6128,3.6864 -1.6128,5.8464c0,0.576 0.0288,1.1808 0.1152,1.7856c0.0864,0.432 0.1152,0.72 0.3456,1.7568l0.4032,1.8144c0.1152,0.5472 0.2016,0.9792 0.2016,1.0368l0,0c0.0288,0 0.9216,-0.9792 1.2096,-1.3248c2.88,-3.2544 4.608,-6.6816 4.9824,-9.7056c0.0288,-0.288 0.0288,-0.5184 0.0288,-0.8064c0,-0.8928 -0.1152,-1.7568 -0.3168,-2.2176c-0.2304,-0.4608 -0.7488,-0.8352 -1.3824,-0.8928m-4.3488,22.2624c-0.0576,-0.4032 -0.144,-0.72 -0.144,-0.7776c0,0 0,0 -0.0288,0c-0.0576,0 -1.296,1.44 -2.16,2.448c-1.4688,1.7856 -3.024,3.9168 -3.6576,4.9536c-1.2096,2.0448 -1.8144,4.32 -1.8144,6.5664c0,1.4688 0.288,2.88 0.8064,4.2336c1.5552,4.0032 5.1264,6.5088 9.0144,6.5088c0.4608,0 0.9792,-0.0288 1.4688,-0.1152c0.6336,-0.1152 1.4112,-0.3456 1.4112,-0.432l0,0c0,0 -0.0576,-0.288 -0.144,-0.6048l-0.8352,-4.1184l-0.6624,-3.0816l-0.432,-2.1312l-0.4608,-2.0736c-0.2304,-1.2384 -0.3168,-1.5552 -0.3168,-1.5552c0,0 0,-0.0288 -0.0288,-0.0288c-0.1728,0 -1.0944,0.4608 -1.4976,0.7488c-1.4976,1.0368 -2.2752,2.6784 -2.2752,4.2912c0,1.5264 0.7488,3.0528 2.1888,3.9456c0.3168,0.2016 0.432,0.3744 0.432,0.576c0,0.0288 0,0.1152 0,0.144c-0.0576,0.3456 -0.2592,0.4896 -0.5472,0.4896c-0.1152,0 -0.2592,-0.0288 -0.432,-0.1152c-2.6496,-1.152 -4.4352,-3.888 -4.4352,-6.8832l0,0c0,-3.456 2.16,-6.4512 5.472,-7.632l0.1728,-0.0576l-0.288,-1.44l-0.8064,-3.8592m4.32,9.6192c-0.2304,-0.0288 -0.4608,-0.0288 -0.6336,-0.0288c-0.0576,0 -0.144,0 -0.2016,0l-0.144,0l0.1152,0.5184l0.6048,2.8224l0.3744,1.8432l0.4032,1.8144l0.8064,4.0032l0.3168,1.5264c0.1152,0.4032 0.1728,0.7488 0.2016,0.7488c0,0 0,0 0,0c0.0288,0 0.5184,-0.288 0.8352,-0.5184c1.4688,-1.0368 2.5632,-2.6496 2.9664,-4.32c0.144,-0.5472 0.2016,-1.1232 0.2016,-1.6704c0,-3.3408 -2.4768,-6.3648 -5.8464,-6.7392" fill="black" stroke-width="0.3"/>
  <g id="vf-auto1005" class="vf-stavenote">
   <g id="svg_9" class="vf-note">
    <g id="svg_10" class="vf-stem">
     <path id="svg_11" d="m52.69064,50l0,-35" stroke="black" fill="none" stroke-width="1.5"/>
    </g>
    <g id="svg_12" class="vf-notehead">
     <path id="svg_13" d="m41.4224,50m7.35696,-5.22288c0.11232,0 0.2808,0 0.30888,0c0,0 0.02808,0 0.02808,0c0,0 0.16848,0 0.30888,0c2.5272,0.1404 4.01544,1.79712 4.01544,3.87504c0,1.01088 -0.33696,2.16216 -1.17936,3.25728c-1.60056,2.16216 -4.212,3.34152 -6.48648,3.34152c-1.76904,0 -3.28536,-0.702 -4.01544,-2.13408c-0.22464,-0.5616 -0.33696,-1.09512 -0.33696,-1.6848c0,-3.06072 3.42576,-6.4584 7.35696,-6.65496" fill="black" stroke-width="0.3"/>
    </g>
   </g>
   <g id="svg_14" class="vf-modifiers"/>
  </g>
 </g>
</svg>