<svg width="80" height="130" xmlns="http://www.w3.org/2000/svg">

 <g>
  <title>background</title>
  <rect fill="none" id="canvas_background" height="132" width="82" y="-1" x="-1"/>
 </g>
 <g>
  <title>Layer 1</title>
  <path id="svg_1" d="m0,40l400,0" stroke="#999999" fill="none"/>
  <path id="svg_2" d="m0,50l400,0" stroke="#999999" fill="none"/>
  <path id="svg_3" d="m0,60l400,0" stroke="#999999" fill="none"/>
  <path id="svg_4" d="m0,70l400,0" stroke="#999999" fill="none"/>
  <path id="svg_5" d="m0,80l400,0" stroke="#999999" fill="none"/>
  <rect id="svg_6" height="41" width="1" y="39.5" x="0" stroke="black" fill="black" stroke-width="0.3"/>
  <rect id="svg_7" height="41" width="1" y="39.5" x="400" stroke="black" fill="black" stroke-width="0.3"/>
  <path id="svg_8" d="m5,50m8.8416,-10.0512c0.2304,-0.0576 0.4608,-0.0576 0.72,-0.0576c1.008,0 2.1888,0.1152 3.1968,0.3168c4.7232,0.9792 7.9776,4.176 8.5824,8.4384c0.0576,0.4608 0.0864,0.8928 0.0864,1.3536c0,2.592 -0.8928,5.9328 -2.4192,8.7264c-3.6288,6.5664 -10.2528,11.2896 -18.2016,13.0176c-0.144,0 -0.2592,0.0288 -0.4032,0.0288c-0.288,0 -0.432,-0.1728 -0.432,-0.432c0,-0.288 0.0576,-0.3744 0.6336,-0.6048c9.1008,-3.4272 15.1776,-10.8288 15.7248,-19.1232c0.0288,-0.432 0.0288,-0.9216 0.0288,-1.296c0,-4.032 -1.2384,-7.0272 -3.6288,-8.5248c-1.0368,-0.6624 -2.16,-0.9792 -3.3696,-0.9792c-2.6784,0 -5.4144,1.5264 -6.6816,4.0896c-0.0576,0.2016 -0.2592,0.6336 -0.2592,0.6624c0,0 0,0 0,0c0,0 0.0288,-0.0288 0.1152,-0.0576c0.6336,-0.4032 1.3248,-0.6048 2.0448,-0.6048c1.008,0 2.0736,0.432 2.8224,1.2384c0.6912,0.7488 1.0656,1.7568 1.0656,2.6784c0,1.872 -1.3824,3.7728 -3.5424,3.9744c-0.144,0 -0.288,0.0288 -0.432,0.0288c-2.3904,0 -4.32,-2.1888 -4.32,-4.9536c0,-0.0576 0,-0.144 0,-0.1728c0.1152,-4.1184 3.888,-7.488 8.6688,-7.7472m15.3216,3.8592c0.0576,-0.0288 0.0864,-0.0288 0.1728,-0.0288c0.2016,0 0.432,0.0288 0.4896,0.0864c0.72,0.2016 1.0656,0.8352 1.0656,1.44c0,0.5184 -0.2592,1.0368 -0.7776,1.3248c-0.2016,0.144 -0.4608,0.1728 -0.72,0.1728c-0.4032,0 -0.8352,-0.1728 -1.1232,-0.5472c-0.2304,-0.288 -0.3456,-0.6048 -0.3456,-0.9216c0,-0.72 0.4608,-1.44 1.2384,-1.5264m0,9.4176c0.0576,0 0.0864,0 0.1728,0c0.2016,0 0.432,0.0288 0.4896,0.0864c0.72,0.2016 1.0656,0.8352 1.0656,1.44c0,0.5184 -0.2592,1.0368 -0.7776,1.296c-0.2016,0.144 -0.4608,0.2016 -0.72,0.2016c-0.4032,0 -0.8352,-0.2016 -1.1232,-0.5472c-0.2304,-0.288 -0.3456,-0.6048 -0.3456,-0.9504c0,-0.72 0.4608,-1.4112 1.2384,-1.5264" fill="black" stroke-width="0.3"/>
  <g id="vf-auto1005" class="vf-stavenote">
   <g id="svg_9" class="vf-note">
    <g id="svg_10" class="vf-stem">
     <path id="svg_11" d="m54.18824,65l0,-35" stroke="black" fill="none" stroke-width="1.5"/>
    </g>
    <g id="svg_12" class="vf-notehead">
     <path id="svg_13" d="m42.92,65m7.35696,-5.22288c0.11232,0 0.2808,0 0.30888,0c0,0 0.02808,0 0.02808,0c0,0 0.16848,0 0.30888,0c2.5272,0.1404 4.01544,1.79712 4.01544,3.87504c0,1.01088 -0.33696,2.16216 -1.17936,3.25728c-1.60056,2.16216 -4.212,3.34152 -6.48648,3.34152c-1.76904,0 -3.28536,-0.702 -4.01544,-2.13408c-0.22464,-0.5616 -0.33696,-1.09512 -0.33696,-1.6848c0,-3.06072 3.42576,-6.4584 7.35696,-6.65496" fill="black" stroke-width="0.3"/>
    </g>
   </g>
   <g id="svg_14" class="vf-modifiers"/>
  </g>
 </g>
</svg>